<mxfile host="app.diagrams.net" agent="Mozilla/5.0 (Windows NT 10.0; Win64; x64) AppleWebKit/537.36 (KHTML, like Gecko) Chrome/134.0.0.0 Safari/537.36" version="26.2.5">
  <diagram name="PÃ¡gina-1" id="GdR597ARHYBLAg40vNo_">
    <mxGraphModel dx="1428" dy="1228" grid="0" gridSize="10" guides="1" tooltips="1" connect="1" arrows="1" fold="1" page="0" pageScale="1" pageWidth="827" pageHeight="1169" math="0" shadow="0">
      <root>
        <mxCell id="0" />
        <mxCell id="1" parent="0" />
        <mxCell id="i90OtfmSH8nduFzOdtHq-1" value="&amp;lt;&amp;lt;abstract&amp;gt; Documento" style="swimlane;fontStyle=1;align=center;verticalAlign=top;childLayout=stackLayout;horizontal=1;startSize=26;horizontalStack=0;resizeParent=1;resizeParentMax=0;resizeLast=0;collapsible=1;marginBottom=0;whiteSpace=wrap;html=1;" vertex="1" parent="1">
          <mxGeometry x="-386" y="317" width="194" height="164" as="geometry" />
        </mxCell>
        <mxCell id="i90OtfmSH8nduFzOdtHq-2" value="# titulo : String" style="text;strokeColor=none;fillColor=none;align=left;verticalAlign=top;spacingLeft=4;spacingRight=4;overflow=hidden;rotatable=0;points=[[0,0.5],[1,0.5]];portConstraint=eastwest;whiteSpace=wrap;html=1;" vertex="1" parent="i90OtfmSH8nduFzOdtHq-1">
          <mxGeometry y="26" width="194" height="26" as="geometry" />
        </mxCell>
        <mxCell id="i90OtfmSH8nduFzOdtHq-5" value="# tamanho : int" style="text;strokeColor=none;fillColor=none;align=left;verticalAlign=top;spacingLeft=4;spacingRight=4;overflow=hidden;rotatable=0;points=[[0,0.5],[1,0.5]];portConstraint=eastwest;whiteSpace=wrap;html=1;" vertex="1" parent="i90OtfmSH8nduFzOdtHq-1">
          <mxGeometry y="52" width="194" height="26" as="geometry" />
        </mxCell>
        <mxCell id="i90OtfmSH8nduFzOdtHq-3" value="" style="line;strokeWidth=1;fillColor=none;align=left;verticalAlign=middle;spacingTop=-1;spacingLeft=3;spacingRight=3;rotatable=0;labelPosition=right;points=[];portConstraint=eastwest;strokeColor=inherit;" vertex="1" parent="i90OtfmSH8nduFzOdtHq-1">
          <mxGeometry y="78" width="194" height="8" as="geometry" />
        </mxCell>
        <mxCell id="i90OtfmSH8nduFzOdtHq-4" value="+ Documento() : String" style="text;strokeColor=none;fillColor=none;align=left;verticalAlign=top;spacingLeft=4;spacingRight=4;overflow=hidden;rotatable=0;points=[[0,0.5],[1,0.5]];portConstraint=eastwest;whiteSpace=wrap;html=1;" vertex="1" parent="i90OtfmSH8nduFzOdtHq-1">
          <mxGeometry y="86" width="194" height="26" as="geometry" />
        </mxCell>
        <mxCell id="i90OtfmSH8nduFzOdtHq-6" value="+ &amp;lt;&amp;lt;abstract&amp;gt;&amp;gt; abrir (): bool" style="text;strokeColor=none;fillColor=none;align=left;verticalAlign=top;spacingLeft=4;spacingRight=4;overflow=hidden;rotatable=0;points=[[0,0.5],[1,0.5]];portConstraint=eastwest;whiteSpace=wrap;html=1;" vertex="1" parent="i90OtfmSH8nduFzOdtHq-1">
          <mxGeometry y="112" width="194" height="26" as="geometry" />
        </mxCell>
        <mxCell id="i90OtfmSH8nduFzOdtHq-13" value="+ &amp;lt;&amp;lt;abstract&amp;gt;&amp;gt; formatar (): bool" style="text;strokeColor=none;fillColor=none;align=left;verticalAlign=top;spacingLeft=4;spacingRight=4;overflow=hidden;rotatable=0;points=[[0,0.5],[1,0.5]];portConstraint=eastwest;whiteSpace=wrap;html=1;" vertex="1" parent="i90OtfmSH8nduFzOdtHq-1">
          <mxGeometry y="138" width="194" height="26" as="geometry" />
        </mxCell>
        <mxCell id="i90OtfmSH8nduFzOdtHq-14" value="Texto" style="swimlane;fontStyle=1;align=center;verticalAlign=top;childLayout=stackLayout;horizontal=1;startSize=26;horizontalStack=0;resizeParent=1;resizeParentMax=0;resizeLast=0;collapsible=1;marginBottom=0;whiteSpace=wrap;html=1;" vertex="1" parent="1">
          <mxGeometry x="156" y="177" width="194" height="112" as="geometry" />
        </mxCell>
        <mxCell id="i90OtfmSH8nduFzOdtHq-15" value="- nPalavras: int&amp;nbsp;" style="text;strokeColor=none;fillColor=none;align=left;verticalAlign=top;spacingLeft=4;spacingRight=4;overflow=hidden;rotatable=0;points=[[0,0.5],[1,0.5]];portConstraint=eastwest;whiteSpace=wrap;html=1;" vertex="1" parent="i90OtfmSH8nduFzOdtHq-14">
          <mxGeometry y="26" width="194" height="26" as="geometry" />
        </mxCell>
        <mxCell id="i90OtfmSH8nduFzOdtHq-17" value="" style="line;strokeWidth=1;fillColor=none;align=left;verticalAlign=middle;spacingTop=-1;spacingLeft=3;spacingRight=3;rotatable=0;labelPosition=right;points=[];portConstraint=eastwest;strokeColor=inherit;" vertex="1" parent="i90OtfmSH8nduFzOdtHq-14">
          <mxGeometry y="52" width="194" height="8" as="geometry" />
        </mxCell>
        <mxCell id="i90OtfmSH8nduFzOdtHq-18" value="+ Total() : String" style="text;strokeColor=none;fillColor=none;align=left;verticalAlign=top;spacingLeft=4;spacingRight=4;overflow=hidden;rotatable=0;points=[[0,0.5],[1,0.5]];portConstraint=eastwest;whiteSpace=wrap;html=1;" vertex="1" parent="i90OtfmSH8nduFzOdtHq-14">
          <mxGeometry y="60" width="194" height="26" as="geometry" />
        </mxCell>
        <mxCell id="i90OtfmSH8nduFzOdtHq-19" value="+ contaPalavra () : String&amp;nbsp;" style="text;strokeColor=none;fillColor=none;align=left;verticalAlign=top;spacingLeft=4;spacingRight=4;overflow=hidden;rotatable=0;points=[[0,0.5],[1,0.5]];portConstraint=eastwest;whiteSpace=wrap;html=1;" vertex="1" parent="i90OtfmSH8nduFzOdtHq-14">
          <mxGeometry y="86" width="194" height="26" as="geometry" />
        </mxCell>
        <mxCell id="i90OtfmSH8nduFzOdtHq-21" value="Planilha&amp;nbsp;" style="swimlane;fontStyle=1;align=center;verticalAlign=top;childLayout=stackLayout;horizontal=1;startSize=26;horizontalStack=0;resizeParent=1;resizeParentMax=0;resizeLast=0;collapsible=1;marginBottom=0;whiteSpace=wrap;html=1;" vertex="1" parent="1">
          <mxGeometry x="156" y="366" width="194" height="112" as="geometry" />
        </mxCell>
        <mxCell id="i90OtfmSH8nduFzOdtHq-22" value="- qntCelulas: int" style="text;strokeColor=none;fillColor=none;align=left;verticalAlign=top;spacingLeft=4;spacingRight=4;overflow=hidden;rotatable=0;points=[[0,0.5],[1,0.5]];portConstraint=eastwest;whiteSpace=wrap;html=1;" vertex="1" parent="i90OtfmSH8nduFzOdtHq-21">
          <mxGeometry y="26" width="194" height="26" as="geometry" />
        </mxCell>
        <mxCell id="i90OtfmSH8nduFzOdtHq-23" value="" style="line;strokeWidth=1;fillColor=none;align=left;verticalAlign=middle;spacingTop=-1;spacingLeft=3;spacingRight=3;rotatable=0;labelPosition=right;points=[];portConstraint=eastwest;strokeColor=inherit;" vertex="1" parent="i90OtfmSH8nduFzOdtHq-21">
          <mxGeometry y="52" width="194" height="8" as="geometry" />
        </mxCell>
        <mxCell id="i90OtfmSH8nduFzOdtHq-24" value="+ Planilha() : String" style="text;strokeColor=none;fillColor=none;align=left;verticalAlign=top;spacingLeft=4;spacingRight=4;overflow=hidden;rotatable=0;points=[[0,0.5],[1,0.5]];portConstraint=eastwest;whiteSpace=wrap;html=1;" vertex="1" parent="i90OtfmSH8nduFzOdtHq-21">
          <mxGeometry y="60" width="194" height="26" as="geometry" />
        </mxCell>
        <mxCell id="i90OtfmSH8nduFzOdtHq-25" value="+ processaCelulas () : void" style="text;strokeColor=none;fillColor=none;align=left;verticalAlign=top;spacingLeft=4;spacingRight=4;overflow=hidden;rotatable=0;points=[[0,0.5],[1,0.5]];portConstraint=eastwest;whiteSpace=wrap;html=1;" vertex="1" parent="i90OtfmSH8nduFzOdtHq-21">
          <mxGeometry y="86" width="194" height="26" as="geometry" />
        </mxCell>
        <mxCell id="i90OtfmSH8nduFzOdtHq-26" value="Apresentacao" style="swimlane;fontStyle=1;align=center;verticalAlign=top;childLayout=stackLayout;horizontal=1;startSize=26;horizontalStack=0;resizeParent=1;resizeParentMax=0;resizeLast=0;collapsible=1;marginBottom=0;whiteSpace=wrap;html=1;" vertex="1" parent="1">
          <mxGeometry x="159" y="541" width="194" height="112" as="geometry" />
        </mxCell>
        <mxCell id="i90OtfmSH8nduFzOdtHq-27" value="- nSlides: int" style="text;strokeColor=none;fillColor=none;align=left;verticalAlign=top;spacingLeft=4;spacingRight=4;overflow=hidden;rotatable=0;points=[[0,0.5],[1,0.5]];portConstraint=eastwest;whiteSpace=wrap;html=1;" vertex="1" parent="i90OtfmSH8nduFzOdtHq-26">
          <mxGeometry y="26" width="194" height="26" as="geometry" />
        </mxCell>
        <mxCell id="i90OtfmSH8nduFzOdtHq-28" value="" style="line;strokeWidth=1;fillColor=none;align=left;verticalAlign=middle;spacingTop=-1;spacingLeft=3;spacingRight=3;rotatable=0;labelPosition=right;points=[];portConstraint=eastwest;strokeColor=inherit;" vertex="1" parent="i90OtfmSH8nduFzOdtHq-26">
          <mxGeometry y="52" width="194" height="8" as="geometry" />
        </mxCell>
        <mxCell id="i90OtfmSH8nduFzOdtHq-29" value="+ Apresentacao () : String" style="text;strokeColor=none;fillColor=none;align=left;verticalAlign=top;spacingLeft=4;spacingRight=4;overflow=hidden;rotatable=0;points=[[0,0.5],[1,0.5]];portConstraint=eastwest;whiteSpace=wrap;html=1;" vertex="1" parent="i90OtfmSH8nduFzOdtHq-26">
          <mxGeometry y="60" width="194" height="26" as="geometry" />
        </mxCell>
        <mxCell id="i90OtfmSH8nduFzOdtHq-30" value="+apresenta () : void" style="text;strokeColor=none;fillColor=none;align=left;verticalAlign=top;spacingLeft=4;spacingRight=4;overflow=hidden;rotatable=0;points=[[0,0.5],[1,0.5]];portConstraint=eastwest;whiteSpace=wrap;html=1;" vertex="1" parent="i90OtfmSH8nduFzOdtHq-26">
          <mxGeometry y="86" width="194" height="26" as="geometry" />
        </mxCell>
        <mxCell id="i90OtfmSH8nduFzOdtHq-32" value="" style="strokeWidth=2;html=1;shape=mxgraph.flowchart.annotation_2;align=left;labelPosition=right;pointerEvents=1;" vertex="1" parent="1">
          <mxGeometry x="-59" y="236" width="218" height="364" as="geometry" />
        </mxCell>
        <mxCell id="i90OtfmSH8nduFzOdtHq-34" value="Extends" style="endArrow=block;endSize=16;endFill=0;html=1;rounded=0;fontSize=12;curved=1;exitX=0;exitY=0.5;exitDx=0;exitDy=0;exitPerimeter=0;entryX=1;entryY=0.5;entryDx=0;entryDy=0;" edge="1" parent="1" source="i90OtfmSH8nduFzOdtHq-32" target="i90OtfmSH8nduFzOdtHq-4">
          <mxGeometry width="160" relative="1" as="geometry">
            <mxPoint x="61" y="207" as="sourcePoint" />
            <mxPoint x="221" y="207" as="targetPoint" />
          </mxGeometry>
        </mxCell>
        <mxCell id="i90OtfmSH8nduFzOdtHq-36" value="" style="endArrow=none;html=1;rounded=0;fontSize=12;startSize=8;endSize=8;curved=1;entryX=1;entryY=0.5;entryDx=0;entryDy=0;entryPerimeter=0;exitX=0.491;exitY=0.5;exitDx=0;exitDy=0;exitPerimeter=0;" edge="1" parent="1" source="i90OtfmSH8nduFzOdtHq-32" target="i90OtfmSH8nduFzOdtHq-32">
          <mxGeometry width="50" height="50" relative="1" as="geometry">
            <mxPoint x="116" y="232" as="sourcePoint" />
            <mxPoint x="166" y="182" as="targetPoint" />
          </mxGeometry>
        </mxCell>
      </root>
    </mxGraphModel>
  </diagram>
</mxfile>
